Coordinates
version=1
nRows=20
nColumns=24
inDegrees=yes

Units are S.I. units (second, meters, Newtons, ...)
If the header above contains a line with 'inDegrees', this indicates whether rotational values are in degrees (yes) or radians (no).

endheader
time	pelvis_tilt	pelvis_list	pelvis_rotation	pelvis_tx	pelvis_ty	pelvis_tz	hip_flexion_r	hip_adduction_r	hip_rotation_r	knee_angle_r	ankle_angle_r	subtalar_angle_r	mtp_angle_r	hip_flexion_l	hip_adduction_l	hip_rotation_l	knee_angle_l	ankle_angle_l	subtalar_angle_l	mtp_angle_l	lumbar_extension	lumbar_bending	lumbar_rotation
1.250000	11.647211	2.318098	-180.692036	0.293377	0.503043	-1.219130	79.726706	-29.243045	-6.002986	-113.849350	41.906783	10.983923	0.000000	84.218119	-35.024090	2.264323	-112.704123	41.412355	18.624061	0.000000	-13.155957	2.067109	3.922865
1.255000	11.626665	2.323275	-180.689008	0.293422	0.503148	-1.219142	79.700614	-29.232150	-6.012276	-113.837564	41.888764	10.971450	0.000000	84.193472	-35.012110	2.276900	-112.685842	41.416735	18.611633	0.000000	-13.177209	2.080588	3.954831
1.260000	11.606231	2.325311	-180.698120	0.293460	0.503267	-1.219171	79.671337	-29.215734	-6.026072	-113.823444	41.890158	10.938232	0.000000	84.163594	-35.016575	2.276765	-112.669241	41.387144	18.587862	0.000000	-13.193997	2.086292	3.992624
1.265000	11.601029	2.320488	-180.692862	0.293514	0.503376	-1.219156	79.658775	-29.219573	-6.030051	-113.803200	41.873391	10.917556	0.000000	84.137062	-34.990952	2.277605	-112.597704	41.350370	18.572972	0.000000	-13.195670	2.090267	3.990860
1.270000	11.603594	2.313782	-180.683236	0.293563	0.503515	-1.219191	79.641398	-29.220725	-6.039839	-113.769468	41.875424	10.914474	0.000000	84.116097	-34.972169	2.261346	-112.565512	41.342827	18.574903	0.000000	-13.184934	2.092903	3.997952
1.275000	11.562397	2.294285	-180.662151	0.293563	0.503720	-1.219210	79.581771	-29.247002	-6.040373	-113.745665	41.864317	10.908045	0.000000	84.041260	-34.948231	2.255607	-112.535976	41.309057	18.637112	0.000000	-13.215452	2.080307	3.976326
1.280000	11.567026	2.299297	-180.656146	0.293576	0.503885	-1.219251	79.561655	-29.248900	-6.070513	-113.720214	41.860609	10.908988	0.000000	84.024083	-34.953114	2.213785	-112.494727	41.317216	18.626330	0.000000	-13.188856	2.092839	3.978783
1.285000	11.560456	2.299201	-180.652728	0.293581	0.504119	-1.219266	79.533084	-29.257760	-6.098632	-113.692764	41.842786	10.895603	0.000000	83.993792	-34.949373	2.226573	-112.461343	41.307520	18.633669	0.000000	-13.170835	2.096757	4.009419
1.290000	11.544454	2.313129	-180.666151	0.293597	0.504360	-1.219338	79.484825	-29.233857	-6.141875	-113.657211	41.822100	10.874364	0.000000	83.950276	-34.982228	2.181247	-112.417339	41.299608	18.573224	0.000000	-13.167137	2.098402	4.045418
1.295000	11.552167	2.312715	-180.661703	0.293628	0.504604	-1.219392	79.453298	-29.229235	-6.165935	-113.606070	41.822203	10.878041	0.000000	83.928281	-34.986102	2.157284	-112.363284	41.290826	18.576823	0.000000	-13.137941	2.095996	4.046863
1.300000	11.499963	2.407293	-180.671086	0.293610	0.504923	-1.219682	79.272126	-29.161783	-6.332068	-113.552003	41.845823	10.861215	0.000000	83.707712	-35.146176	1.606084	-112.549051	41.787962	17.749234	0.000000	-13.172778	2.165471	4.086888
1.305000	11.500440	2.285728	-180.650698	0.293596	0.505186	-1.219476	79.323777	-29.249024	-6.196887	-113.507996	41.834289	10.949366	0.000000	83.765924	-35.009012	2.035099	-112.249011	41.253139	18.585292	0.000000	-13.139614	2.065072	4.031117
1.310000	11.475077	2.286134	-180.651072	0.293578	0.505513	-1.219477	79.256971	-29.252587	-6.230193	-113.458027	41.818162	10.941588	0.000000	83.705261	-35.024610	2.008596	-112.200604	41.201986	18.599500	0.000000	-13.141584	2.065954	4.049301
1.315000	11.451329	2.304456	-180.664416	0.293530	0.505879	-1.219505	79.177708	-29.236374	-6.291088	-113.407771	41.785181	10.922060	0.000000	83.640964	-35.061440	1.984671	-112.161218	41.183840	18.590497	0.000000	-13.133672	2.084013	4.077299
1.320000	11.460958	2.402461	-180.682103	0.293541	0.506206	-1.219743	79.068120	-29.166529	-6.465750	-113.345273	41.772809	10.816365	0.000000	83.480735	-35.218423	1.443282	-112.343378	41.690248	17.757058	0.000000	-13.098620	2.167465	4.102429
1.325000	11.472323	2.280453	-180.658703	0.293564	0.506599	-1.219598	79.108425	-29.239860	-6.339304	-113.270475	41.758349	10.912224	0.000000	83.533973	-35.082476	1.852260	-112.015014	41.132447	18.592870	0.000000	-13.050519	2.065963	4.015795
1.330000	11.432714	2.277432	-180.671853	0.293513	0.507070	-1.219665	78.971036	-29.214458	-6.288106	-113.157564	41.904928	11.305874	0.000000	83.463009	-35.123642	1.849100	-111.929395	41.062875	18.729278	0.000000	-13.062975	2.047025	4.064747
1.335000	11.421983	2.380619	-180.648549	0.293487	0.507531	-1.219868	78.796664	-29.177874	-6.455369	-113.057689	41.956093	11.397945	0.000000	83.225773	-35.256434	1.241496	-112.066661	41.651369	17.865513	0.000000	-13.043018	2.139482	4.058200
1.340000	11.451713	2.282436	-180.640962	0.293496	0.508048	-1.219718	78.835183	-29.239226	-6.369522	-112.971053	41.935489	11.478914	0.000000	83.296609	-35.141583	1.653545	-111.742992	41.093585	18.639279	0.000000	-12.972793	2.046037	4.027907
1.345000	11.402981	2.381906	-180.674259	0.293422	0.508608	-1.219936	78.662148	-29.183528	-6.667888	-112.918000	41.770152	11.029541	0.000000	83.049864	-35.332964	1.112338	-111.901137	41.585972	17.895713	0.000000	-12.985484	2.123534	4.127929
